<?xml version="1.0" encoding="UTF-8"?><svg id="Camada_1" xmlns="http://www.w3.org/2000/svg" viewBox="0 0 2036.06 2008.15"><defs><style>.cls-1{fill:#7e8e20;}.cls-2{fill:#d0d5b4;}.cls-3{fill:#bb5b2b;}.cls-4{fill:#afbd8d;}.cls-5{fill:#425a12;}</style></defs><rect class="cls-4" x="0" width="2036.06" height="2007.86"/><g><path class="cls-5" d="M2033.57,2008.15H8.94c-.66,0-1.32,0-1.99,0-6.93-.02-6.95-.02-6.95-7.05C0,1835.59,0,1670.07,0,1504.56c3.08-2.81,6.68-2.18,10.35-1.77,15.47,1.72,30.93,3.78,46.03,7.47,14.81,3.62,29.38,3.97,44.21,1,14.86-2.97,29.12-.34,42.37,6.51,11.55,5.96,23.42,8.26,36.3,8.31,60.03,.26,119.52-5.23,178.44-16.75,24.11-4.71,46.63-14.86,69.89-22.46,12.06-3.94,20.25-13.87,29.19-22.16,12.96-12.02,27.86-20.26,43.7-27.28,16.69-7.4,33.5-14.83,47.63-26.71,20.76-17.45,45.43-25.69,70.76-32.7,38.98-10.78,79.21-15.61,118.35-25.62,15.76-4.03,32.09-4.38,48.1-6.78,33.42-4.99,65.99-14.18,98.74-22.36,16.58-4.14,33.29-5.93,50.18-4.53,15.8,1.31,31.74,2.47,47.14,6.49,27.54,7.2,55.22,13.9,82.33,22.71,45.37,14.75,90.33,30.65,135,47.46,28.88,10.87,58.5,19.26,89.48,21.56,11.46,.85,22.59,4.2,31.58,11.05,22.09,16.84,47.62,18.45,73.52,19.37,19.14,.68,38.39-1.72,57.42,2.12,1.62,.33,3.35,.32,4.87,.93,39.28,15.81,82.13,21.47,119.35,43.09,25.31,14.7,49.34,31.59,72.11,49.85,43.84,35.14,93.74,56.02,147.3,69.34,26.01,6.47,51.75,14.21,78.48,17.38,4.92,.58,9.95,1.41,14.49,3.35,21.95,9.38,44.94,10.15,68.24,9.39,23.15-.75,46.18,3.14,69.37,2.15,3.64-.16,8.33-.74,9.6,4.8-.04,115.85,0,231.69-.06,347.52,0,3.61,.91,7.37-.92,10.85Z"/><path class="cls-1" d="M2033.34,1647.56c-27.44,1.37-54.78-2.75-82.18-1.89-21.65,.68-42.65-.86-63.16-9.11-14.7-5.91-31.09-5.08-46.39-9.06-29.98-7.78-60.35-14.1-89.64-24.43-14.01-4.94-28.3-9.5-41.58-16.06-17.16-8.49-33.76-18.19-49.12-29.97-26.05-19.98-52.75-39.12-80.33-56.8-22.44-14.38-47.31-23.69-73.2-29.83-12.55-2.98-24.77-6.67-36.52-12.19-11.79-5.54-24.59-7.52-37.47-7.94-14.88-.48-29.78-.04-44.67-.26-10.54-.16-21.03-1.56-31.55-2.3-12.39-.88-23.43-6.96-33.46-14.13-13.71-9.8-29.21-14.64-45.41-15.17-16.5-.54-31.72-5.68-47.32-9.55-26.66-6.6-51.77-17.96-77.55-27.24-39.16-14.1-78.38-28.14-118.44-39.24-20.58-5.7-40.94-12.64-62.15-16.03-21.19-3.38-42.45-6.51-63.92-4.9-16.45,1.23-32.2,6.63-48.21,10.43-20.81,4.94-41.5,10.51-62.44,14.81-7.62,1.56-15.53,2.59-23.49,2.93-14.46,.61-28.89,2.81-42.84,6.56-21.67,5.84-43.83,8.87-65.65,13.63-28.59,6.24-57.42,11.88-84.69,23.45-10.83,4.6-20.75,10.42-29.65,17.85-14.76,12.32-31.69,20.87-49.06,28.01-20.95,8.61-39.02,21-54.82,36.92-7.78,7.84-16.69,13.61-26.9,16.28-16.32,4.27-31.61,11.48-47.81,15.96-17.81,4.92-36.05,7.44-54.22,10.35-12.33,1.98-24.7,3.68-37.05,5.51-8.81,1.31-17.78,1.5-26.59,1.99-29.32,1.65-58.69,3.85-88.11,2.49-6.97-.32-13.76-1.82-19.83-5.51-9.82-5.96-20.66-8.53-31.79-10.31-8.05-1.29-15.99,.73-23.52,2.34-11.5,2.46-22.21,.78-33.2-1.58-18.33-3.94-36.93-6.28-55.46-9-1.3-.19-2.64-.03-3.97-.03v-461.28c11.77-5.02,24.54-4.5,36.81-6.71,38.23-6.89,76.95-6.79,115.55-9.11,38.96-2.34,76.62,1.15,113.63,12.7,16.47,5.14,32.85,10.27,49.91,13.04,8.51,1.38,17.07,2.13,25.6,3.13,40.8,4.8,78.14,19.86,114.1,38.99,9.08,4.83,18,9.99,27.25,14.48,35.24,17.1,69.37,36.36,103.95,54.74,14.48,7.7,30,12.23,46.08,15.17,42.41,7.73,83.89,19.42,125.03,32.18,25.11,7.79,51.08,11.18,76.46,17.53,17.06,4.27,34.16,8.54,50.4,15.09,14.49,5.85,27.79,4.97,42.41,.64,48.33-14.3,95.46-31.97,142.64-49.63,27-10.11,54.82-17.77,82.45-25.99,34.28-10.2,67.87-22.69,101-36.18,19.67-8.01,39.68-13.27,60.6-13.8,17.53-.45,34.94-2.63,52.49-2.56,46.54,.2,89.52-12.36,128.69-37.97,11.96-7.82,23.72-15.96,35.55-23.98,3.32-2.25,6.43-4.72,8.99-7.86,22.81-27.96,52.41-43.96,87.44-48.94,45.83-6.51,87.09-24.47,126.11-48.77,10.26-6.39,17.76-16.06,27.38-23.22,5.9-4.39,11.77-8.67,18.7-11.25,44.75-16.63,90.53-23.61,138.33-18.38,26.3,2.88,52.48,6.77,78.81,9.4,6.21,.62,14.34-1.59,18.19,6.7-.05,241.03,0,482.04-.08,723.05,0,3.91,1.22,8.05-1.12,11.77Z"/><path class="cls-3" d="M2033.22,910.43c-15.71-1.49-31.33-3.8-47.01-5.43-15.37-1.59-30.67-3.94-46.1-5.27-17.54-1.52-34.98-.89-52.46-1.51-13.96-.49-27.52,1.34-40.93,5.6-12.87,4.09-25.88,7.75-39.04,10.9-13.88,3.33-24.96,12.1-35.02,21.86-7.7,7.47-15.82,14.03-25.07,19.46-29.54,17.35-60,32.34-93.56,39.97-15.08,3.43-30.62,4.45-45.47,8.99-26.17,8.01-49.03,21.26-66.23,43.4-1.63,2.09-3.35,4.34-5.5,5.75-21.36,13.96-41.79,29.35-64.44,41.31-19.28,10.19-40.03,15.35-60.91,20.21-15.14,3.52-30.58,4.67-46.16,4.24-17.51-.48-34.9,2.08-52.43,2.22-25.83,.21-49.54,9.79-73.07,19.56-8.54,3.54-17.04,7.14-26.09,9.33-10.62,2.57-20.47,7.47-30.61,11.46-24.64,9.69-50.58,15.05-75.65,23.39-19.75,6.57-39.3,13.66-58.97,20.44-31.81,10.96-62.21,26.03-95.43,32.95-13.18,2.75-25.52,8.98-38.69,12.27-6.64,1.66-12.97,1.81-19.39-.66-29.34-11.29-59.58-19.59-90.42-24.97-36.51-6.36-71.07-19.84-106.96-28.36-23.37-5.55-46.49-12.09-70.3-15.87-22.47-3.56-42.75-13.91-62.19-25.32-22.92-13.46-46.65-25.23-70.23-37.33-13.86-7.11-27.68-14.29-41.39-21.7-29.5-15.95-60.29-28.93-93.35-35.14-11.92-2.24-24.04-3.68-36.14-5.09-16.3-1.89-32.57-4.8-48.09-10.76-21.7-8.32-44.3-12.45-67.25-15.39-18.81-2.41-37.37-1.96-56.19-.13-14.11,1.37-28.45-.02-42.67,.5-21.39,.78-42.58,3.7-63.78,6.63-15.29,2.12-30.44,5.84-46.03,5.33v-8.06c10.84-1.46,21.16-3.89,31.17-9.13,11.44-5.99,24.61-7.58,37.11-10.58,25.8-6.18,50.84-14.93,75.84-23.52,15.83-5.44,30.4-14.69,45.43-22.44,22.48-11.6,45.61-21.4,70.25-27.28,5.83-1.39,11.4-3.63,16.42-6.95,12.82-8.48,26.62-14.42,41.15-19.51,30.9-10.84,61.31-23.13,90.28-38.7,31.29-16.81,64.59-29.36,95.59-46.86,21.09-11.9,42.65-22.95,64.18-34.03,21.88-11.26,39.46-28.11,56.84-45.03,10.85-10.56,22.12-20.21,35.41-27.26,8.76-4.65,13.91-13.19,21.28-19.39,33.08-27.83,62.63-59.7,96.68-86.49,10.06-7.92,18.98-17.7,24.29-30.05,.78-1.81,2-3.51,3.34-4.97,35.81-38.9,21.77-33.7,74.86-68,10.86-7.02,22.14-13.96,31.29-22.96,9.8-9.65,20.98-17.23,31.27-26.05,5.61-4.8,11.89-8.51,17.95-12.54,19.06-12.67,37.77-25.92,58.11-36.5,3.28-1.71,6.62-3.23,10.27-3.55,11.56-1,23.13-.52,34.69,.06,5.27,.27,8.59,3.45,10.51,7.99,4.62,10.95,11.49,20.3,19.18,29.15,1.53,1.76,3.18,3.56,4.14,5.64,7.65,16.55,21.82,27.58,33.43,40.76,5.35,6.08,11.92,10.4,19.77,12.93,7.93,2.56,15.52,6.42,20.95,12.96,11.42,13.76,25.52,24.25,39.61,34.82,12.76,9.57,25.47,19.18,38.25,28.73,2.12,1.59,4.35,3.1,6.69,4.31,32.77,16.86,62.2,39.44,94.59,56.97,8.45,4.57,16.17,10.43,22.98,17.44,2.29,2.36,5.09,4.29,7.9,6.03,12.45,7.7,24.41,16.08,35.78,25.35,2.58,2.1,5.07,4.38,8.54,4.86,9.76,1.36,18.16,6.19,26.43,11.1,12.41,7.37,25.79,12.11,39.65,15.42,27.43,6.56,53.5,17.38,80.15,26.32,35.54,11.92,69.7,27.32,102.92,44.83,7.99,4.21,16.54,6.75,25.38,8.37,24.45,4.48,48.42,10.88,72.06,18.56,5.36,1.74,10.72,3.25,16.36,3.9,16.16,1.88,31.68,6.61,47.11,11.57,9.22,2.96,18.44,5.12,28.21,4.45,8.3-.57,16.5,.5,24.65,2.15,7.45,1.51,14.99,2.57,22.43,4.16,5.81,1.24,11.73,2.43,17.22,4.61,17.24,6.85,34.37,13.98,51.39,21.36,7.34,3.18,14.77,5.9,22.54,7.6,10.73,2.34,21.02,5.92,30.96,10.58,1.48,4.7,1.9,9.37-.24,14Z"/><path class="cls-2" d="M2033.22,910.43c.08-4.67,.16-9.34,.24-14.01,.7-.06,1.39-.13,2.09-.19,0,367.62,0,735.23-.12,1102.85,0,2.95,2.29,6.83-1.86,9.06,.02-118.52,.04-237.05,.05-355.57,0-1.67-.18-3.34-.28-5.01,.07-5.37,.2-10.73,.2-16.1,0-235.65,.01-471.3,0-706.95,0-4.69-.2-9.39-.31-14.08Z"/></g></svg>