<?xml version="1.0" encoding="UTF-8"?><svg id="Camada_1" xmlns="http://www.w3.org/2000/svg" viewBox="0 0 815.3 683.92"><defs><style>.cls-1{fill:#bb5b2b;}.cls-2{fill:#bb5b2c;}.cls-3{fill:#425a12;}</style></defs><path class="cls-1" d="M28.94,155.16c-3.06-11.33-3.4-23.17-7.55-34.32v34.06c-7.31,1.46-14.15,.59-21.38,.69V59.48c1.26-.25,2.2-.59,3.14-.6,6.25-.05,12.5-.03,19.47-.03,4.06,16.03,8.06,31.83,12.07,47.63,.48-.07,.96-.14,1.44-.22,3.85-15.49,7.69-30.99,11.65-46.94h22.68v95.79c-6.81,1.04-13.46,.52-20.68,.34-1.69-11.21,.36-22.42-2.02-33.49-1.86,11-3.72,21.99-5.62,33.23-4.58,.72-8.73,.77-13.19-.04Z"/><path class="cls-1" d="M327.53,111.64c8.95-9.92,8.23-21.47,6.51-32.96-1.45-9.66-7.63-15.58-16.96-18-12.29-3.16-24.74-1.62-37.48-1.66v96.6c7.2-.11,14.01,.52,21.38-.48v-35.1c7.97-1.08,9.52-.28,11.65,6.33,1.78,5.53,1.96,11.31,2.2,17.09,.17,3.91-.52,7.96,1.16,11.96,6.84,.21,13.48,.83,20.61-.48-2.07-14.73,1.12-30.06-9.06-43.29Zm-14.17-16.83c-.51,7.67-3.37,9.86-12.39,9.12-.59-8.95-.41-17.97-.12-26.98,8.72-.23,11.81,2.24,12.47,9.66,.25,2.71,.22,5.47,.04,8.21Z"/><path class="cls-3" d="M517.38,257.96c-1.16,6.59-2.4,13.17-3.44,19.78-1.07,6.81-1.03,6.88-7.92,6.79-.98-.01-1.96-.2-3.33-.36-3.37-9.38-3.1-19.53-6.83-28.99v28.53c-5.08,1.45-9.58,.72-14.01,.75-2.4,.02-3.63-1.39-3.73-3.78-.04-1-.07-2-.07-3.01,0-22.56,0-45.11,.02-67.67,0-1.22,.21-2.45,.35-4.05,5.97-1.67,11.87-.66,18.12-.7,4.49,12.49,6.19,25.59,11.48,38.09,3.17-12.47,6.34-24.95,9.56-37.65,6.04-1.15,11.94-.46,18.33-.41v78.62c-5.61,1.06-10.98,.78-16.81,.22-1.45-8.87,.01-17.63-1.72-26.17Z"/><path class="cls-3" d="M544.2,337.79h17.13c4.33,12.25,6.13,25.38,11.37,38.05,3.16-12.39,6.32-24.77,9.57-37.51,5.8-1.48,11.72-.65,17.56-.52,1.6,5.45,2.17,65.36,.78,78.29-5.24,1.97-10.69,.43-16.68,.99-1.62-9.22,0-18.16-1.76-26.96-1.18,6.82-2.45,13.63-3.52,20.47-1,6.36-1.02,6.49-7.53,6.41-1.23-.01-2.52,.13-4.03-1.04-2.85-9.04-2.99-19.11-6.52-28.53v28.38c-4.96,2.09-9.72,1.04-14.37,1.06-2.04,0-3.13-1.34-3.31-3.36-.02-.25-.07-.5-.07-.75,.11-24.55,.22-49.1,.35-73.66,0-.2,.29-.39,1.04-1.32Z"/><path class="cls-2" d="M151.3,122.9h22c1.48,3.72,.57,7.59,1.55,11.18,.55,2,1.12,4.12,3.6,4.09,2.48-.02,3.23-2.15,3.55-4.17,.88-5.5-.04-10.62-4.44-14.4-3.6-3.09-7.41-5.97-11.33-8.65-13.68-9.34-16.85-20.81-12.7-39.85,1.44-6.61,6.13-10.65,12.78-12.45,6.68-1.81,13.48-1.96,20.13-.76,7.53,1.36,13.35,5.64,16.43,12.92,2.55,6.04,4.08,12.3,3.36,19.19-3.68,1.46-7.45,.73-11.12,.77-3.72,.03-7.49,.51-11.49-.5-1.42-3.22-.41-6.83-1.18-10.18-.48-2.1-1.38-3.96-3.87-3.74-1.97,.17-3,1.77-3.25,3.64-.76,5.63-.61,10.98,4.07,15.25,3.36,3.06,6.97,5.74,10.81,8.1,14.49,8.91,17.54,22.3,14.85,37.84-1.51,8.73-6.85,13.76-16.19,15.44-5.94,1.07-12.01,1.2-17.97,.17-8.53-1.48-14.72-6.14-17.6-14.52-2.12-6.16-3.18-12.49-1.98-19.36Z"/><path class="cls-3" d="M454.37,416.71c-1.82,.13-3.3,.34-4.77,.31-5.52-.1-5.6-.29-6.51-5.9-1.07-6.57-2.3-13.1-4.73-19.54,0,6.46,.09,12.92-.03,19.37-.11,5.62-.45,5.9-6.06,6.07-3.48,.1-6.97,.02-10.27,.02-1.77-5.67-2.36-65.83-.88-78.71,4.98-1.53,10.22-.59,15.38-.63,2.49-.02,3.12,1.84,3.63,3.99,2.43,10.2,5.01,20.36,7.51,30.54,.29,1.2,.26,2.51,2.1,3.47,3.09-8.04,4.46-16.49,6.64-24.68,3.72-13.98,3.53-14.04,18.11-13.4,.73,.03,1.46,.25,2.15,.37,1.63,5.22,2.19,67.07,.7,77.95-.6,.28-1.24,.81-1.93,.87q-14.41,1.26-14.39-13.11c0-5.36,0-10.72-.37-16.11-3.38,9.21-3.04,19.15-6.27,29.11Z"/><path class="cls-3" d="M520.62,549.49c-5.25,.47-10.16,.57-15.65-.09v-29.39c-3.84,9.41-3.83,19.52-6.76,29.25-3.47,.87-6.85,.77-10.57-.01-1.45-8.39-2.87-16.65-4.29-24.92-.44,0-.87,.01-1.31,.02v24.85c-6.28,.94-11.64,.75-17.43,.25v-77.24c5.35-1.79,10.84-.85,16.23-.77,2.62,.04,2.65,2.44,3.13,4.41,2.42,9.93,4.94,19.84,7.41,29.76,.24,.98,.41,1.95,2.05,2.84,1.15-2.26,1.85-4.63,2.44-7.14,1.93-8.26,4.14-16.46,5.99-24.73,.84-3.77,2.61-5.45,6.65-5.38,15.66,.29,12.99-1.53,13.1,12.39,.16,19.05,.06,38.1,0,57.16,0,2.7,.57,5.49-.99,8.74Z"/><path class="cls-1" d="M381.97,58.83c-4.24,0-8.72-.01-13.19,0q-7.76,.01-9.52,7.89c-6.08,27.09-12.17,54.18-18.18,81.28-.51,2.29-1.55,4.64-.86,7.46,7,.25,13.66,.61,20.56-.28,1.48-4.64,1.15-9.56,3.26-13.8,3.88-.93,7.65-.22,11.37-.52,3.67-.32,5.61,1.01,5.86,4.89,.19,3.2,.76,6.4,2.14,9.66,6.74,.37,13.41,.61,20.09-.17-.3-6.31-18.83-89.46-21.52-96.41Zm-15.66,64.19c1.64-10.07,3.23-19.81,4.82-29.56,3.47,9.42,4.61,19.15,6.06,29.05-3.61,1.8-6.89,1.17-10.89,.51Z"/><path class="cls-3" d="M668.69,382.66c0,9.26,.07,18.51-.02,27.77-.06,6.15-.39,6.51-6.28,6.56-3.46,.03-6.98,.57-10.34-.52-1.44-5.41-1.89-67.24-.54-78.25,4.73-1.29,9.7-.52,14.61-.56,2.95-.02,3.35,2.69,4.22,4.62,4.11,9.11,8.06,18.29,12.12,27.42,.88,1.99,1.23,4.32,4.16,6.34v-37.57c5.94-1.54,11.05-.89,15.94-.63,1.76,2.44,1.21,4.76,1.21,6.94,.05,21.54,.03,43.07,.03,64.61,0,1.25-.03,2.5-.03,3.76,0,2.37-1,3.81-3.53,3.82-3.51,.01-7.01,0-10.52,.02-3.15,.02-4.16-2.38-5.22-4.65-3.7-7.93-7.33-15.88-11.05-23.8-1.02-2.17-2.26-4.24-3.4-6.36-.45,.16-.91,.31-1.36,.47Z"/><path class="cls-3" d="M535.89,360.18c-.23-4.13-1.04-8.41-2.68-12.4-2.04-4.96-5.5-8.47-10.57-9.93-6.56-1.86-13.23-2.43-20.02-.8-9.78,2.35-13.88,6.75-15.97,16.44-1.7,7.94-1.23,15.94-1.41,23.93,.14,8.25-.3,16.51,1.48,24.69,2.04,9.3,7.61,14.66,16.89,15.25,4.24,.28,8.52,.26,12.76,.08,10.54-.41,16.44-5.21,18.37-15.31,2.67-13.88,1.92-27.95,1.13-41.94Zm-19.12,32.67c-.01,1.48-.25,3-.65,4.42-.77,2.76-1.96,5.11-5.54,5-3.59-.11-4.74-2.72-5.22-5.4-1.2-6.67-.33-13.45-.51-20.2v-14.99c.01-2.25,.12-4.49,1.26-6.55,2.06-3.74,6.84-3.94,8.98-.23,1.27,2.18,1.73,4.64,1.73,7.21-.03,10.24,.01,20.49-.04,30.74Z"/><path class="cls-3" d="M815.3,377.67c-.48-9.19,.68-18.23-1.86-27.06-1.77-6.19-5.47-10.69-11.63-12.68-5.01-1.63-10.26-2.18-15.55-1.66-12.56,1.23-19.6,7.6-20.83,19.52-1.48,14.44-1.48,28.93,0,43.36,1.22,11.81,7.97,17.88,19.74,18.32,3.99,.15,8.01,.15,12-.12,8.84-.65,14.03-5.28,16.42-13.81,2.39-8.61,1.12-17.39,1.71-25.86Zm-19.93,19.08c-.37,4.1-2.07,5.62-5.54,5.51-3.4-.11-4.61-2.06-5.06-5.25-1.81-13.16-1.77-26.32,.03-39.48,.43-3.15,1.73-5.12,5.14-5.19,3.41-.08,5.04,1.41,5.42,5.64,.58,6.45,.93,12.92,1.37,19.46-.44,6.4-.79,12.86-1.35,19.31Z"/><path class="cls-3" d="M421.34,205.4h15.92c1.96,2.5,1.22,5.1,1.23,7.51,.09,15.28,.1,30.57,.09,45.86,0,3.05,.25,6.01,1.77,8.73,1.32,2.36,3.25,3.76,6.09,3.58,2.83-.17,4.67-1.74,5.6-4.27,1.22-3.32,1.63-6.77,1.61-10.32-.06-14.03-.03-28.06,.02-42.1,.01-2.72-.43-5.49,.68-8.61,5.2-1.37,10.62-.58,15.83-.45,2.03,1.73,1.47,3.86,1.47,5.79,.03,15.03,.03,30.07-.05,45.1-.03,6.02-.87,11.95-2.74,17.69-2.17,6.7-7.03,10.37-13.85,10.85-6.23,.43-12.55,.47-18.77-.05-6.2-.51-10.59-4.15-12.81-10.08-1.68-4.48-2.67-9.2-2.73-13.91-.22-17.54-.11-35.08-.09-52.62,0-.7,.36-1.4,.72-2.7Z"/><path class="cls-1" d="M211.13,77.52c-.47-6.52-.52-12.15,.02-18.24h59.7c.75,5.86,.42,11.5,.27,17.92h-18.28c-2.02,7.01-.79,13.48-1.01,19.85-.22,6.5-.05,13.02-.05,19.53v38.35c-3.98,1.23-7.48,.62-10.9,.74-3.21,.1-6.42,.02-9.73,.02-1.31-3.19-.84-5.95-.85-8.62-.05-20.79,0-41.57-.03-62.36,0-7.09-.06-7.11-6.92-7.18-3.75-.04-7.49,0-12.22,0Z"/><path class="cls-3" d="M681.61,655.57c5.73-.52,11.15-.42,16.65-.11,1.92,4.23-.39,9.65,4.37,12.43,3.89-4.44,3.82-10.03-.05-14.45-3.02-3.44-6.87-5.89-10.62-8.3-12.58-8.1-12.67-23.73-8.4-34.19,2.22-5.43,7.03-7.72,12.5-8.3,3.96-.42,8.04-.44,12-.04,6.39,.65,11.13,4.04,14.15,9.8,2.62,5,3.19,10.38,3.55,16.38-6.29,1.45-12.35,.88-18.21,.38-1.48-2.48-.81-4.8-1.12-6.98-.29-2.02-.66-4.35-3.28-4.15-2.59,.2-2.53,2.62-2.77,4.62-.67,5.54,1.43,9.75,6,12.84,4.35,2.94,8.64,5.95,12.38,9.72,3.92,3.94,6.04,8.51,6.01,14.07,0,2-.07,4.01,.02,6.01,.5,11.39-5.55,16.68-16.52,18.32-2.21,.33-4.5,.23-6.75,.16-12.58-.37-19.83-7.41-20.64-20.06-.16-2.47-.62-4.99,.72-8.14Z"/><path class="cls-3" d="M470.74,629.25h-17.46c-2.04-2.22-.73-5.35-2.15-7.76-1.2-2.04-2.29-3.87-5-3.86-2.7,0-3.92,1.69-4.91,3.9-.95,2.14-1.12,4.35-1.12,6.61-.01,10.02-.01,20.05,0,30.07,0,1.25-.09,2.57,.26,3.74,.84,2.83,1.35,6.25,5.25,6.37,3.63,.1,5.21-2.62,6.11-5.64,.49-1.65,.54-3.43,.83-5.42,5.97-1.29,11.88-.74,17.72-.38,2.6,13-5.72,24.74-18.82,26.65-6.02,.88-12.02,.29-17.8-1.66-6.61-2.24-9.96-7.51-11.35-13.87-1.06-4.85-1.99-9.78-1.81-14.86,.38-10.74-.59-21.49,1.42-32.21,2.19-11.72,9.09-18.74,21.56-18.5,2,.04,4.01-.03,6.01,.04,10.88,.42,18.03,5.94,20.44,16.39,.7,3.06,2.27,6.2,.8,10.4Z"/><path class="cls-3" d="M589.59,682.31c-5.88,0-10.39-.23-14.86,.07-3.65,.24-5.44-1.27-6.54-4.59-1.87-5.65-4.02-11.2-6.4-17.73-3.57,6.24-5.1,12.18-7.03,17.91-1.06,3.15-2.63,4.49-5.92,4.37-4.72-.17-9.44-.04-14.55-.04,.71-4.87,3.2-8.42,4.83-12.26,2.93-6.91,5.74-13.94,9.52-20.38,3-5.1,2.08-9.26-.23-13.98-4.07-8.31-7.92-16.73-11.76-25.16-.81-1.78-2.1-3.45-1.89-6.69,5.21,0,10.54-.06,15.87,.03,2.38,.04,3.24,1.76,3.96,3.83,1.96,5.64,4.14,11.2,6.42,17.3,3.6-3.61,3.89-8.02,5.31-11.83,4.31-11.51,3.12-9.21,12.98-9.38,2.94-.05,5.98-.59,8.9,.58,.25,2.99-1.41,5.31-2.52,7.77-4.04,8.88-8.07,17.77-12.37,26.52-1.6,3.26-1.41,5.84,.18,9.1,5.37,10.96,10.34,22.12,16.09,34.55Z"/><path class="cls-3" d="M672.64,677.7c-4.7-20.62-9.41-41.26-14.01-61.91-2.8-12.58-2.74-12.47-15.03-12.1-3.9,.11-5.62,1.31-6.48,5.39-3.73,17.78-7.94,35.46-11.85,53.21-1.41,6.44-3.49,12.76-3.85,19.81,5.86,.19,11.27,.65,16.73-.33,1.06-3.83,.83-7.72,3.01-10.86,15.54-1.81,13.05-.36,14.68,9.77,.07,.4,.59,.73,1.12,1.35,5.18,.29,10.58,.84,15.76-.33,.68-1.6,.19-2.76-.08-3.99Zm-23.17-21.7c-1.35,.95-3.67,1.04-4.97-.17-2.38-2.17-1.2-5.17-.81-7.75,.86-5.64,2.04-11.22,3.11-16.83,.22,.11,.46,.21,.69,.3,1.06,5.61,2.31,11.19,3.09,16.84,.36,2.53,1.67,5.65-1.11,7.6Z"/><path class="cls-3" d="M525.28,674.95c-4.34-18.94-8.61-37.89-12.86-56.84q-3.48-15.5-19.37-14.05c-.44,.04-.84,.47-1.8,1.04-5.61,25.06-11.3,50.52-17.2,76.87,3.34,.17,5.07,.37,6.78,.32,10.57-.33,10.64,2.61,12.45-10.43,.06-.4,.61-.73,1.11-1.31,4.23-.17,8.65-1.02,13.03,.65,.62,3.84,.83,7.6,2.91,10.94,5.19,.14,10.13,.61,15.15-.36,.68-2.49,.3-4.61-.21-6.82Zm-29.09-19.1c.4-7.78,2.13-15.03,4.02-22.38,2.56,7.1,3.41,14.45,4.5,22.1-3.36,1.24-5.71,.98-8.52,.28Z"/><path class="cls-3" d="M608.59,338h35.75c.66,4.81,.6,9.2,.03,13.99-5.94,1.76-12.03,.05-18.21,1.24-1.55,4.9-.58,9.77-.7,14.65,4.22,2.05,8.42,.25,12.55,1.71,1.6,4.4,.92,9,.47,13.65-4.04,1.93-8.24,.1-12.4,1.66-1.46,4.9-.68,9.99-.43,15.34,6.23,1.65,12.32-.04,18.55,1.3,1.14,4.78,.33,9.47,.5,13.54-1.38,2.1-2.97,1.93-4.44,1.93-9.02,.03-18.05-.04-27.07,.05-3.56,.04-5.72-.94-5.7-5.03,.13-24.06,.15-48.11,.25-72.17,0-.44,.39-.88,.85-1.87Z"/><path class="cls-3" d="M438.93,487.05c-.98,4.9-.55,9.28-.3,13.72,4.22,1.79,8.38,.21,12.52,1.53,1.33,4.52,.94,9.1,.32,13.51-2.95,1.76-5.77,1.06-8.44,1.09-3.01,.03-4.82,.94-4.66,4.29,.2,4.19-.47,8.44,.6,12.89,5.55,1.41,11.12-.04,16.79,1.04,2.21,4.44,.66,9.09,1.05,14.18h-35.85v-76.56c1.06-1.57,2.64-1.44,4.11-1.44,8.76-.04,17.53-.11,26.29,0,5.28,.07,5.34,.23,5.5,5.6,.07,2.25,0,4.51-.13,6.76-.04,.69-.47,1.36-.79,2.24-5.36,1.43-10.94-.15-17,1.15Z"/><path class="cls-3" d="M711.46,352.04c-.58-4.57-.56-8.96,.07-13.92h48.14c1.56,4.47,.91,9.05,.49,13.83-5.11,1.74-10.25,.05-15.89,1.58v62.46c-3.76,1.55-6.78,1.01-9.72,1.02-7.99,.02-8.05-.04-8.07-7.81-.04-15.76,.02-31.52-.04-47.28-.01-2.7,.57-5.49-.88-8.38-4.27-1.76-9.22,.14-14.09-1.5Z"/><path class="cls-3" d="M613.71,681.89c-5.57,.64-10.75,.6-16.49,.02v-77.45c5.4-1.18,10.75-.86,16.07-.26,1.48,5.53,1.86,67.85,.42,77.69Z"/><path class="cls-1" d="M141.78,84.98c-.23-3.7-1.15-7.42-2.07-11.04-2.25-8.9-8.1-14.23-17.02-16.01-7.68-1.53-15.44-1.49-23.14-.01-9.34,1.78-15,7.58-17.25,16.71-.83,3.4-1.52,6.87-1.78,10.35-.54,7.36-.79,14.75-1.04,19.93-.01,.18-.01,.36,0,.52,.33,12.71,.04,23.19,2.53,33.44,2.62,10.87,8.63,16.3,19.73,17.57,4.95,.57,10.02,.61,15,.35,15.18-.8,22.24-7.21,24.37-22.31,2.31-16.45,1.67-32.99,.68-49.51Zm-23.53,22.21h-.12c0,7.27,.33,14.55-.08,21.77-.39,6.51-2.71,9.16-6.73,9.24-4.16,.1-6.24-1.95-6.95-8.41-.03-.28-.04-.57-.04-.86l.04-44.08c0-.32,.01-.65,.06-.97,.19-1.56,.64-3.14,1.24-4.57,1.08-2.56,3.22-3.72,6.01-3.59,2.58,.11,4.09,1.69,5.06,3.87,1.02,2.33,1.49,4.79,1.51,7.32,.04,6.76,.01,13.52,.01,20.28Z"/><text/></svg>