<?xml version="1.0" encoding="UTF-8"?><svg id="Camada_1" xmlns="http://www.w3.org/2000/svg" viewBox="0 0 1207.37 239.95"><defs><style>.cls-1{fill:#bb5b2b;}.cls-2{fill:#bb5b2c;}.cls-3{fill:#afbd8d;}</style></defs><path class="cls-1" d="M41.7,58.61c3.2-7.49,4.07-14.5,5.87-21.22,2.65-9.9,5-19.88,7.26-29.87,.92-4.04,2.71-5.96,7.17-5.6,4.95,.41,9.95,.01,14.93,.12,5.97,.12,6.09,.19,6.12,6.56,.08,15.53,.03,31.05,.03,46.58,0,17.87,.05,35.74-.03,53.61-.03,6.19-.17,6.46-6.31,6.33-6.03-.13-13.52,2.59-17.68-1.49-3.47-3.4-.94-10.59-1.06-16.1-.18-8.15-.05-16.3-.47-24.5-3.48,11.48-4.56,23.39-6.74,35.08-.46,2.48,.1,6.09-2.97,6.7-4.23,.83-8.74,1.05-13-.29-1.6-.5-1.34-2.41-1.58-3.8-1.7-9.81-3.4-19.61-5.1-29.42-.48-2.78-.5-5.74-2.95-8.49,0,12.38,.06,24.08-.03,35.77-.05,6.47-.16,6.5-7.01,6.61-3.81,.06-7.62,.08-11.43,0-6.54-.14-6.65-.18-6.66-6.98-.05-29-.02-58.01-.02-87.01,0-4.98,.1-9.96,0-14.94C0,3.27,1.31,2.31,4.21,1.99,26.18-.44,26.39-.31,31.6,20.91c2.86,11.66,5.86,23.28,8.82,34.91,.14,.55,.48,1.05,1.29,2.79Z"/><path class="cls-1" d="M163.67,21.42c-3.04-12.33-10.96-19.05-23.23-20.65-5.2-.68-10.53-.66-15.79-.45-18.11,.71-26.73,8.27-29.7,25.99-2.99,17.74-1.74,35.61-1.5,53.45,.08,5.31,1.02,10.51,2.11,15.63,2.71,12.61,9.98,19.32,22.68,21.08,7.57,1.03,15.21,1.03,22.78,.03,12.88-1.71,19.71-8.04,22.84-20.86,2.97-12.08,2.13-24.42,2.87-36.77-.77-12.45-.03-25.07-3.07-37.45Zm-25.88,62.93c-.69,7.86-3,10.62-7.8,10.8-5.02,.18-7.93-3.15-8.36-11.2-.47-8.46-.11-16.97-.11-25.46h-.15c0-7.6-.05-15.21,.03-22.83,.02-2.92,.53-5.8,1.65-8.57,1.21-2.97,3.07-4.96,6.47-4.97,3.73-.03,6.05,2.03,7.2,5.34,.66,1.92,.95,3.99,1.11,6.02,1.37,16.95,1.47,33.92-.05,50.87Z"/><path class="cls-1" d="M392.14,90.37c-.84-8.43-1.49-17.03-7.31-23.97-1.26-1.49-1.81-2.86-.34-4.6,9.01-10.72,8.25-23.25,6.38-35.89-1.74-11.77-8.93-18.73-20.13-21.78-4.81-1.32-9.73-2.11-14.76-2.08-7.33,.03-14.66-.08-21.99-.02-7.07,.06-7.18,.13-7.2,7.3-.05,24.33-.02,48.66-.02,72.98,0,9.38,.08,18.76-.02,28.14-.03,3.24,1.08,4.86,4.55,4.76,4.68-.15,9.38,.05,14.06-.03,6.3-.13,6.41-.18,6.47-6.28,.1-10.25-.05-20.52,.08-30.77,.06-5.15,1.31-5.89,6.31-5.52,3.15,.23,4.75,2.08,5.92,4.5,2.2,4.54,3.39,9.35,3.55,14.4,.19,6.15,.4,12.3,.53,18.45,.08,3.52,1.45,5.36,5.3,5.26,6.39-.18,12.8-.05,19.95-.05-.47-9.07-.6-16.98-1.36-24.81Zm-26.33-42.1c-.55,3.07-2.49,5.23-5.38,6.41-5.88,2.41-8.43,.69-8.56-5.8-.06-3.49-.02-6.97,0-10.48,0-3.49-.11-6.99,.02-10.48,.21-5.02,1.61-5.94,6.47-4.71,3.71,.95,6.28,3.2,7.18,6.86,1.45,6.02,1.34,12.14,.26,18.19Z"/><path class="cls-2" d="M227.62,39.4c-.29,0-.59,.02-.88,0-3.77-.26-8.14,1.33-11.16-.85-2.94-2.13-.9-6.58-1.76-9.9-.07-.28-.07-.58-.12-.87-.5-2.67-1.11-5.63-4.56-5.34-3.18,.28-3.89,3.14-4.22,5.87-.82,6.82,.61,12.9,6.3,17.3,5.33,4.12,10.82,8.02,16.18,12.1,6.77,5.17,11.47,11.78,12.91,20.27,1.39,8.18,1.16,16.38-1.43,24.33-2.03,6.23-6.32,10.57-12.59,12.52-9.72,3.03-19.66,3.28-29.5,.85-8.21-2.03-13.85-7.36-16.97-15.24-2.41-6.08-2.96-12.49-3.42-18.94-.28-3.88,1.38-5.19,5.11-5.08,5.86,.18,11.73,.21,17.59-.01,3.91-.15,5.12,1.57,5.03,5.22-.07,2.91,.22,5.86,.7,8.74,.4,2.42,1.63,4.65,4.55,4.35,2.34-.24,3.3-2.22,3.6-4.38,.92-6.69,.25-12.98-5.39-17.61-3.61-2.97-7.31-5.87-11.19-8.49-16.25-10.97-21.9-23.19-16.99-46.64,1.7-8.13,6.82-13.33,14.95-15.64,8.09-2.3,16.31-2.54,24.38-.92,12.81,2.56,18.9,11.8,21.72,23.79,3.14,13.33,2.22,14.56-11.08,14.56-.59,0-1.17,0-1.76,0Z"/><path class="cls-3" d="M113.24,206.32c-1.39,8.85-2.95,17.67-4.07,26.56-.45,3.57-1.7,5.63-5.41,5.06-3.27-.5-7.92,2.26-8.94-4-1.49-9.19-3.41-18.32-5.18-27.46-.1-.51-.45-.97-1.54-3.21,0,10.52,.08,19.32-.03,28.1-.08,6.38-.19,6.62-6.24,6.59-17.38-.09-14.37,2.1-14.49-14.19-.18-22.84-.07-45.69-.04-68.54,.01-8.98,.07-9.06,9.34-9.02,15.81,.08,12.22-1.62,16.38,13.05,2.94,10.35,5.19,20.9,7.79,31.5,2.67-1.36,2.59-3.76,3.12-5.92,2.8-11.32,5.88-22.57,8.42-33.95,.82-3.69,2.54-4.54,5.93-4.75,17.22-1.06,17.22-1.14,17.22,16.05,0,22.85,.04,45.69-.02,68.54-.02,7.11-.14,7.27-7.37,7.23-16.01-.1-13.28,1.84-13.54-13.39-.1-6.06-.02-12.12-.02-18.18-.44-.03-.87-.06-1.31-.08Z"/><path class="cls-3" d="M213.34,190.49c4.53-8.61,5.96-17.82,8.4-26.74,1.23-4.5,2.54-9,3.4-13.57,.55-2.92,2.02-3.96,4.74-3.94,4.69,.04,9.37,.05,14.06,.03,2.96,0,4.22,1.51,4.13,4.38-.04,1.17,.03,2.34,.03,3.51,0,25.48,.03,50.96-.02,76.45-.01,7.23-.13,7.4-7.23,7.36-16.17-.1-13.41,1.87-13.68-13.25-.11-6.12-.02-12.25-1.23-18.47-1.4,8.54-2.96,17.05-4.12,25.62-.47,3.48-.71,6.11-5.33,6.22-7.16,.18-8.04,.11-9.29-5.76-1.87-8.82-3.39-17.72-5.08-26.59-.05-.24-.3-.44-1.41-2.01,0,10.05,.08,18.77-.02,27.5-.08,6.59-.18,6.77-6.99,6.73-16.15-.08-13.67,1.84-13.76-13.19-.13-23.43-.07-46.86-.02-70.29,.02-8.18,.11-8.32,8.31-8.26,17.14,.11,13.11-1.96,17.55,13.77,2.85,10.08,5.06,20.33,7.56,30.51Z"/><path class="cls-3" d="M771.67,192.42c3.94-10.57,5.33-19.79,7.79-28.71,1.24-4.5,2.55-9,3.4-13.57,.55-2.95,2.08-3.92,4.77-3.9,4.69,.03,9.37,.05,14.06,.04,2.99,0,4.18,1.58,4.1,4.41-.03,1.17,.03,2.34,.03,3.51,0,25.48,.03,50.96-.02,76.45-.02,7.19-.13,7.37-7.27,7.32-16.12-.1-13.38,1.87-13.64-13.29-.11-6.11-.02-12.22-1.2-18.42-1.4,8.25-2.93,16.49-4.13,24.77-.51,3.53,0,6.96-5.39,7.07-7.45,.15-8.12,.19-9.54-6.63-1.78-8.55-3.2-17.17-4.79-25.76-.04-.23-.31-.43-1.41-1.84,0,9.62,.05,18.07-.02,26.52-.06,7.43-.12,7.61-7.04,7.57-16.08-.09-13.64,1.86-13.72-13.22-.13-23.43-.07-46.86-.02-70.29,.02-8.14,.11-8.28,8.35-8.22,17.08,.11,12.97-1.92,17.54,13.8,1.46,5.03,2.42,10.2,3.69,15.29,1.27,5.08,2.63,10.13,4.46,17.11Z"/><path class="cls-3" d="M358.56,189.62c3.02-11.8,6.07-23.64,9.08-35.48,1.99-7.83,1.97-7.96,9.73-7.92,15.65,.08,13.48-1.63,13.55,13.53,.11,23.44,.06,46.87,.01,70.31-.02,7.8-.11,7.95-7.63,7.91-13.99-.06-12,1.52-12.17-12.14-.09-6.74-.06-13.48-.11-20.21,0-.82-.13-1.63-.31-3.68-2.79,10.1-3.74,19.33-5.38,28.43-1.4,7.81-2.07,7.95-9.57,7.7-3.59-.12-5.12-1.32-5.58-5.02-1.04-8.32-2.56-16.57-5.53-24.79,0,7.62,.08,15.24-.02,22.85-.09,6.7-.18,6.9-6.91,6.85-16.53-.11-13.76,1.88-13.87-13-.17-23.43-.07-46.87-.03-70.31,.01-8.32,.08-8.32,8.05-8.45q13.57-.23,16.91,13.03c2.28,9.04,4.57,18.08,6.8,27.13,.37,1.5,.76,2.81,2.99,3.27Z"/><path class="cls-1" d="M471.16,106.64c-6.47-29.12-12.91-58.23-19.63-87.29-1.31-5.6-.34-13.01-4.89-16.3-4.46-3.21-11.33-.9-17.14-.98-7.14-.11-7.17,.03-8.65,6.63-7.41,33.09-14.82,66.19-22.2,99.3-.48,2.15-1.7,4.34-.24,6.6,3.57,1.1,7.1,.55,10.57,.56,4.07,0,8.86,.97,12.01-.82,3.39-1.94,2.49-7.3,3.21-11.22,.44-2.34,.66-4.99,3.73-5.09,5.25-.16,10.96-1.53,15.59,.63,3.78,1.76,2.36,7.3,3.34,11.14,.15,.56,.19,1.15,.24,1.73,.19,2.49,1.6,3.62,4.02,3.62h20.74c.81-3.49-.16-6.01-.71-8.51Zm-33.24-28.86c-8.07,1.03-9.46-.15-8.31-8.07,1.08-7.52,2.32-15.01,3.52-22.5,.21-1.42,.37-2.94,2.73-3.47,1.71,10.01,3.41,20,5.1,29.98,.4,2.41-.27,3.71-3.04,4.07Z"/><path class="cls-3" d="M469.89,196.05c0,5.11,0,10.23,0,15.34,0,7.03-.16,14.07,.05,21.1,.12,4.21-1.57,5.63-5.68,5.56-18.39-.3-14.98,2-15.13-14.53-.21-22.85-.08-45.71-.04-68.56,.01-8.67,.16-7.99,8.72-8.94,9.47-1.04,14.28,2.62,17.47,11.34,3.97,10.86,9.25,21.25,13.96,31.84,.61-.1,1.21-.19,1.82-.29,0-9.72-.1-19.44,.02-29.15,.2-15.08-2.44-13.48,13.51-13.52,7.22-.02,7.35,.15,7.37,7.34,.06,25.78,.06,51.57,0,77.36-.02,6.86-.15,6.86-6.68,7.07q-13.76,.44-19.51-11.69c-4.23-8.99-8.35-18.04-12.56-27.04-.58-1.23-1.39-2.36-2.09-3.53-.41,.1-.83,.21-1.24,.31Z"/><path class="cls-3" d="M640.29,163.56c-1.73-11.11-9.73-18.1-20.97-18.78-4.37-.26-8.78-.23-13.16-.03-12.35,.55-19.56,7.33-22.09,19.61-1.91,9.29-1.51,18.61-1.66,27.46,.1,10.11-.39,19.76,1.8,29.28,1.99,8.63,6.42,14.76,15.45,17.12,7.82,2.04,15.62,2.26,23.39,.44,10.66-2.51,15.66-8.58,17.51-19.23,1.97-11.33,1.38-22.71,1.7-34.09,.2-7.37-.85-14.59-1.97-21.78Zm-20.97,45.5c.01,2.99-.67,5.79-1.67,8.57-.86,2.4-2.26,4.04-5.01,4.18-3.1,.15-4.75-1.57-5.99-4.19-1.18-2.5-1.33-5.08-1.34-7.72-.02-5.86-.01-11.72-.01-17.58s-.01-11.72,.01-17.58c.01-2.64,.09-5.24,1.21-7.75,1.15-2.57,2.53-4.6,5.72-4.57,3.15,.03,4.67,1.81,5.56,4.63,.88,2.81,1.55,5.62,1.53,8.6-.04,11.13-.05,22.27-.01,33.41Z"/><path class="cls-3" d="M314.88,170.42c-1.31-16.63-8.57-26.44-26.39-25.83-2.92,.11-5.86,0-8.78,.13-11.67,.53-18.76,5.78-21.15,17.14-4.15,19.63-3.44,39.44-.58,59.2,1.57,10.75,8.25,16.29,18.63,17.98,6.12,1,12.22,.97,18.35,.06,10.49-1.53,16.69-7.43,18.86-17.9,.6-2.87,1.19-5.7,1.19-8.64,.02-6.73,0-13.46,0-20.2h-.03c0-7.31,.48-14.67-.1-21.95Zm-22.7,43.49c-.65,5.1-3.02,8.18-6.51,7.76-4.2-.5-5.36-3.47-6.07-7.33-1.37-7.54-1.32-15.09-1.32-23.96-.11-6.04,.08-13.29,1.34-20.53,.66-3.83,1.81-6.86,6.05-7.33,3.45-.39,5.92,2.66,6.47,7.75,1.6,14.55,1.84,29.09,.03,43.64Z"/><path class="cls-3" d="M.08,181.21c0-9.67,.17-19.34-.08-29-.12-4.64,1.75-6.11,6.18-6.05,18.12,.24,14.67-1.52,14.88,13.96,.21,15.53,.08,31.06,.1,46.59,0,3.52,.21,6.94,1.4,10.37,1.24,3.58,3.35,5.19,7.09,5.23,4.07,.05,6.47-1.53,7.71-5.59,1.14-3.74,1.36-7.47,1.37-11.27,.03-17.29-.02-34.57,.06-51.86,.03-7.19,.15-7.36,7.36-7.34,16.19,.05,13.51-1.59,13.65,13.35,.14,15.23-.12,30.47,.03,45.71,.06,5.93-1.11,11.66-2.19,17.38-1.74,9.3-7.52,15.09-17.01,16.46-7.26,1.05-14.62,1.17-21.87-.1-9.81-1.72-15.26-7.77-17-17.54-1.08-6.07-1.83-12.12-1.73-18.3,.13-7.32,.03-14.65,.03-21.97Z"/><path class="cls-1" d="M269.38,69.64c0-12.87,.05-25.75-.03-38.62-.04-7.02-.13-7.02-7.41-7.16-.59-.01-1.18,.06-1.75-.01-4.25-.51-10.33,2.17-12.41-1.42-3.01-5.16-1.29-11.95-.86-18.01,.24-3.28,3.55-2.35,5.69-2.36,13.46-.09,26.92-.05,40.38-.05,6.44,0,12.88,.16,19.31-.04,3.89-.12,5.24,1.55,4.95,5.2-.4,5.19,2.07,11.52-1.19,15.28-3.09,3.58-9.38,1.12-14.24,1.36-7.17,.36-7.29,.22-7.3,7.46-.05,25.16-.02,50.33-.02,75.49,0,9.08,.4,8.41-8.74,8.44-3.8,.01-7.61-.16-11.41,.02-3.84,.18-5.06-1.5-5.03-5.2,.14-13.46,.06-26.92,.05-40.38Z"/><path class="cls-3" d="M1165.52,206.37c1.76,0,3.53,.13,5.27-.03,4.38-.41,6.72,1.19,6.19,5.88-.03,.29-.02,.59,.02,.88,.4,3.24-.88,8.51,4.15,7.88,4.32-.54,2.99-5.7,2.87-9.03-.19-5.13-3.48-8.47-7.49-11.22-5.07-3.48-10.06-7.02-14.33-11.52-4.02-4.24-6.25-9.13-6.33-14.95-.05-4.1-.17-8.21,.15-12.29,.7-8.91,7.26-16.06,16.07-17.02,5.21-.56,10.6-.68,15.78-.01,11.68,1.49,21.7,16.9,19.09,28.49-.49,2.18-1.74,2.85-3.67,2.89-2.34,.05-4.69,.15-7.03,.04-3.47-.17-7.4,1.21-10.31-.81-2.93-2.03-1.12-6.02-1.74-9.09-.36-1.78-.6-3.66-2.84-3.79-2.54-.15-3.63,1.68-3.97,3.84-.81,5.18,.21,9.79,4.09,13.7,3.96,3.99,8.65,7.01,13.21,10.13,14.63,9.99,13.97,27.7,9.76,38.55-2.78,7.18-9.37,9.39-16.16,10.43-4.29,.65-8.83,.71-13.13,.12-16.44-2.26-21.63-17.05-20.84-29.73,.13-2.08,1.18-3.23,3.28-3.27,2.63-.04,5.27,0,7.91,0v-.08Z"/><path class="cls-3" d="M1047.09,237.15c-.56,.28-1.04,.74-1.52,.73-6.43-.03-13.75,1.76-19.04-.73-5.6-2.63-5.01-11.17-7.59-16.93-1.06-2.37-1.79-4.89-2.94-8.12-4.22,6.13-5.2,12.84-7.66,18.9-3.16,7.78-1.81,6.89-9.78,6.98-4.66,.05-9.31,0-14.23,0-.61-4.95,2.28-8.23,3.8-11.79,3.9-9.13,8.05-18.17,12.57-27,2.66-5.19,2.59-9.69-.05-14.89-4.89-9.63-9.23-19.54-13.74-29.36-1.08-2.34-2.63-4.53-2.7-8.27,6.2-1.02,12.51-.34,18.75-.42,2.54-.03,3.51,1.74,4.23,3.73,1.49,4.11,2.92,8.25,4.37,12.38,.95,2.7,1.5,5.6,4.08,8.17,3.29-5.05,4.59-10.6,6.51-15.85,3.09-8.46,2.99-8.5,12.29-8.52,2.34,0,4.69-.08,7.02,.03,5.7,.26,6.26,1,3.93,6.16-4.79,10.65-9.44,21.39-14.79,31.77-2.83,5.5-2.86,10.1-.08,15.55,4.9,9.62,9.24,19.53,13.68,29.38,1.17,2.6,3.17,4.96,2.9,8.07Z"/><path class="cls-3" d="M873.04,192.43c-.41,7.38,.16,14.36,1.29,21.31,.86,5.26,3.04,8.33,6.36,7.94,4.12-.48,5.65-3.35,6.27-7.25,1.02-6.4,1.19-6.4,7.47-6.52,2.93-.06,5.86-.08,8.78,0,6.32,.19,7.26,.88,6.34,7.25-2.12,14.68-9.58,22.28-22.51,24.23-4.29,.65-8.81,.55-13.13,0-13.4-1.69-20.98-10.08-22.24-24.08-1.34-14.87-1.2-29.75-.02-44.62,1.11-13.87,7.85-23.13,18.91-25.44,6.33-1.32,12.92-1.28,19.23-.17,11.91,2.09,21.22,15.46,19.91,27.41-.27,2.45-1.09,3.84-3.66,3.85-2.93,.01-5.86,.12-8.78,.03-2.89-.09-6.07,.87-8.61-.68-2.61-1.59-1.28-4.84-1.86-7.31-.83-3.48-2.68-6.08-6.49-5.81-3.77,.26-5.38,3.05-5.81,6.59-.95,7.84-2.11,15.66-1.43,23.26Z"/><path class="cls-3" d="M957.36,159.72c-3.12-14.03-2.94-13.88-17.13-13.62-5.02,.1-6.96,1.79-8.04,6.84-5.99,27.85-12.45,55.6-18.98,84.43,6.42,1.05,11.98,.53,17.48,.57,2,0,3.29-.9,3.5-3.05,.13-1.45,.23-2.94,.56-4.34q1.52-6.47,8.01-6.6c1.76-.03,3.52,.1,5.26,0,2.94-.16,4.26,1.57,4.81,4.07,.44,1.99,.66,4.02,.87,6.04,.19,1.87,.65,3.68,2.86,3.73,5.92,.13,11.95,.94,18.31-.6-5.99-26.43-11.87-51.92-17.52-77.45Zm-12.95,48.09c-3.92,.15-5.41-1.68-4.86-5.29,1.21-8.02,2.57-16.03,3.86-24.04,.39,.02,.77,.02,1.16,.03,1.27,8.01,2.63,16.01,3.83,24.04,.44,2.92-.27,5.12-3.99,5.26Z"/><path class="cls-3" d="M1145.24,231.77c-.18-1.15-.69-2.23-.95-3.36-5.39-23.84-10.77-47.7-16.13-71.55-2.39-10.7-2.36-10.7-13.45-10.67q-9.48,.03-11.49,8.93c-5.2,22.99-10.56,45.94-15.53,69-3.29,15.21-5,13.66,11.38,13.98,4.92,.1,6.68-2.08,7.47-6.42,1.4-7.75,1.52-7.73,8.96-7.73,1.45-.02,2.92,.06,4.37,.02,2.86-.1,4.31,1.11,4.46,4.07,.1,1.73,.66,3.42,.95,5.15,.56,3.31,2.13,5.28,5.84,4.84,1.44-.16,2.92-.02,4.39-.02s2.92,.05,4.37-.02c5.41-.26,6.13-1.08,5.34-6.22Zm-29.8-23.94c-2.91,.03-5.52-.37-4.89-4.16,1.26-7.6,2.71-15.16,4.08-22.73,.6,.02,1.18,.02,1.78,.03,1.39,7.6,2.89,15.19,4.1,22.83,.6,3.84-2.26,4-5.07,4.04Z"/><path class="cls-3" d="M398.06,191.71c0-12.88-.08-25.76,.04-38.65,.06-6.55,.34-6.78,7.07-6.85,10.25-.1,20.5,.09,30.74-.06,4.05-.06,6.09,1.35,5.7,5.59-.11,1.16,0,2.34,0,3.51q-.02,8.64-8.59,8.71c-.88,0-1.76,0-2.64,0-11.43,.02-14.04,3.4-11.41,14.65,.37,1.58,1.01,2.69,2.69,2.92,.87,.12,1.76,.06,2.62,.2,3.33,.55,7.94-1.77,9.74,1.76,1.94,3.81,.8,8.62,.54,12.99-.16,2.76-2.36,2.84-4.47,3.06-3.42,.36-7.65-1.49-10.07,1.27-2.56,2.92-1.05,7.3-1.08,11.02-.08,8.39,.04,8.4,8.8,8.47,1.76,.01,3.51-.01,5.27,0q8.59,.09,8.6,8.73,.01,8.88-9.24,8.93c-8.78,.02-17.57,.05-26.35,0-7.81-.05-7.89-.1-7.93-7.63-.07-12.88-.02-25.76-.02-38.65Z"/><path class="cls-3" d="M686.59,192.27c0-13.17-.08-26.35,.04-39.52,.06-6.21,.33-6.44,6.51-6.52,10.25-.12,20.5,.09,30.74-.08,4.3-.07,6.39,1.15,6.32,5.93-.23,14.3,.63,11.67-11.62,11.89-12.14,.22-11.16-1.52-11.13,11.47,.02,6.06,.2,6.06,6.55,6.32,.58,.02,1.17,0,1.76,.01q7.33,.23,7.51,7.17c.01,.59,0,1.17,0,1.76-.05,8.28,.72,8.96-8.5,8.94-7.21-.02-7.37,.2-7.33,7.28,.08,15.69-1.62,13.15,12.66,13.42,1.46,.03,2.94,.12,4.39,0,4.07-.33,5.74,1.32,5.7,5.55-.17,14.47,.77,11.92-11.37,12.1-8.2,.12-16.4,.08-24.59,0-7.51-.06-7.58-.12-7.62-7.95-.06-12.59-.02-25.18-.01-37.77Z"/><path class="cls-3" d="M538.43,201.35c0-10.55-.12-21.11,.05-31.66,.07-4.09-1.36-6.05-5.56-5.69-1.16,.1-2.36,.12-3.51-.03-3.09-.42-7.38,1.63-9.02-1.48-2.17-4.12-1.14-9.15-.54-13.77,.27-2.11,2.26-2.47,4.08-2.47,16.42,0,32.83,.01,49.25,.04,1.51,0,3.26,.29,3.55,1.91,.83,4.63,.97,9.36-.07,13.95-.47,2.06-2.78,1.63-4.48,1.83-3.98,.48-9-1.82-11.74,1.42-2.84,3.35-1.07,8.46-1.1,12.78-.13,17.59,0,35.18-.08,52.77-.03,6.84-.16,7.05-6.76,7.01-16.92-.12-13.74,1.99-14.04-13.75-.14-7.62-.02-15.24-.03-22.87Z"/><path class="cls-3" d="M1076.53,192.01c0,13.15,.07,26.29-.03,39.44-.05,6.31-.2,6.55-6.32,6.51-17.5-.12-14.3,2.12-14.44-14.1-.2-23.08-.08-46.16-.04-69.23,.01-8.29,.08-8.41,8.03-8.4,14.56,.02,12.69-1.3,12.79,12.48,.08,11.1,.02,22.2,.02,33.3Z"/></svg>